<?xml version="1.0" standalone="no"?>
<!DOCTYPE svg PUBLIC "-//W3C//DTD SVG 20010904//EN"
 "http://www.w3.org/TR/2001/REC-SVG-20010904/DTD/svg10.dtd">
<svg version="1.0" xmlns="http://www.w3.org/2000/svg"
 width="372.000000pt" height="158.000000pt" viewBox="0 0 372.000000 158.000000"
 preserveAspectRatio="xMidYMid meet">
<metadata>
Created by potrace 1.16, written by Peter Selinger 2001-2019
</metadata>
<g transform="translate(0.000000,158.000000) scale(0.100000,-0.100000)"
fill="#000000" stroke="none">
<path d="M0 790 l0 -790 1860 0 1860 0 0 790 0 790 -1860 0 -1860 0 0 -790z
m729 142 c34 -60 61 -113 61 -118 0 -5 27 -22 61 -37 106 -50 125 -119 50
-187 -109 -100 -369 -97 -480 5 -63 59 -43 133 50 181 53 26 79 26 79 -1 0
-30 113 -217 121 -203 21 32 8 84 -41 168 -35 59 -50 96 -50 120 0 74 15 64
86 -59 37 -66 72 -117 76 -115 4 3 8 24 8 47 0 32 -12 62 -50 127 -28 47 -50
96 -50 110 0 25 10 70 15 70 2 0 31 -49 64 -108z m535 -38 c9 -3 16 -17 16
-31 0 -23 -1 -24 -59 -17 -73 8 -104 -6 -99 -44 2 -22 15 -33 72 -62 81 -42
106 -70 106 -117 0 -70 -86 -116 -187 -99 -52 9 -63 18 -57 44 6 20 10 21 64
15 69 -7 105 1 114 23 12 32 -5 53 -68 83 -35 16 -73 42 -85 57 -37 47 -20
123 33 144 25 10 127 13 150 4z m736 -44 l0 -50 45 0 c41 0 45 -2 45 -25 0
-23 -4 -25 -45 -25 l-45 0 0 -72 c0 -89 8 -102 54 -101 29 1 36 -3 36 -18 0
-47 -93 -49 -130 -2 -18 23 -20 40 -20 179 0 157 1 161 43 163 14 1 17 -8 17
-49z m950 -135 l0 -185 -30 0 c-16 0 -30 4 -30 9 0 5 -17 3 -38 -6 -34 -13
-43 -13 -75 1 -47 19 -77 68 -77 126 0 92 57 150 148 150 l42 0 0 38 c0 45 5
52 37 52 l23 0 0 -185z m-1401 89 l31 -6 0 -134 0 -134 -25 0 c-17 0 -25 6
-25 17 0 14 -2 14 -20 -2 -25 -23 -88 -23 -122 -1 -34 22 -52 68 -51 129 2
102 88 155 212 131z m276 -8 c18 -8 38 -23 44 -34 6 -12 11 -68 11 -126 l0
-106 -30 0 -30 0 0 98 c0 53 -4 103 -9 111 -5 8 -27 15 -53 15 l-43 1 -3 -112
-3 -113 -29 0 -30 0 0 134 0 135 28 4 c59 9 114 6 147 -7z m524 0 c7 -5 11
-53 11 -137 l0 -129 -30 0 c-21 0 -30 5 -30 17 0 14 -2 14 -20 -2 -43 -39
-127 -14 -157 46 -20 38 -16 119 7 157 28 46 71 63 146 58 34 -2 67 -7 73 -10z
m280 -20 c24 -24 26 -33 29 -136 l4 -110 -36 0 -36 0 0 105 c0 105 0 106 -27
116 -15 5 -38 9 -52 7 -26 -3 -26 -3 -29 -115 l-3 -113 -29 0 -30 0 0 134 0
135 28 4 c15 3 56 4 91 2 53 -2 68 -7 90 -29z m544 25 c36 -14 55 -37 67 -82
20 -72 12 -79 -91 -79 -95 0 -109 -9 -69 -45 16 -15 32 -17 88 -13 67 5 69 4
64 -16 -8 -30 -20 -36 -85 -36 -69 0 -111 19 -132 60 -20 38 -19 123 1 161 25
48 99 72 157 50z m272 -1 c3 -6 4 -18 1 -28 -5 -14 -14 -17 -46 -14 l-40 4 0
-116 0 -116 -30 0 -30 0 0 134 c0 132 0 135 23 139 44 9 116 7 122 -3z"/>
<path d="M2803 748 c-48 -23 -56 -125 -12 -160 24 -21 37 -22 73 -8 25 9 26
13 26 89 0 63 -3 80 -16 85 -22 8 -45 6 -71 -6z"/>
<path d="M1443 750 c-30 -12 -43 -41 -43 -94 0 -69 47 -104 101 -76 16 9 19
22 19 95 l0 85 -27 -1 c-16 0 -38 -4 -50 -9z"/>
<path d="M2213 750 c-31 -13 -45 -44 -41 -97 4 -61 40 -91 90 -77 l33 10 0 84
0 85 -30 2 c-16 1 -40 -2 -52 -7z"/>
</g>
</svg>
