<!DOCTYPE svg PUBLIC "-//W3C//DTD SVG 20010904//EN" "http://www.w3.org/TR/2001/REC-SVG-20010904/DTD/svg10.dtd">
<svg version="1.0" xmlns="http://www.w3.org/2000/svg" width="341px" height="341px" viewBox="0 0 3410 3410" preserveAspectRatio="xMidYMid meet">
<g id="layer101" fill="#da0504" stroke="none">
 <path d="M0 1705 l0 -1705 1705 0 1705 0 0 1705 0 1705 -1705 0 -1705 0 0 -1705z"/>
 </g>
<g id="layer102" fill="#ec0000" stroke="none">
 <path d="M0 1705 l0 -1705 1705 0 1705 0 0 1705 0 1705 -1705 0 -1705 0 0 -1705z m1247 1498 c-4 -3 -10 -3 -14 0 -3 4 0 7 7 7 7 0 10 -3 7 -7z m56 0 c-7 -2 -19 -2 -25 0 -7 3 -2 5 12 5 14 0 19 -2 13 -5z m195 0 c-10 -2 -28 -2 -40 0 -13 2 -5 4 17 4 22 1 32 -1 23 -4z m-91 -10 c-4 -3 -10 -3 -14 0 -3 4 0 7 7 7 7 0 10 -3 7 -7z m216 0 c-7 -2 -21 -2 -30 0 -10 3 -4 5 12 5 17 0 24 -2 18 -5z m520 0 c-7 -2 -19 -2 -25 0 -7 3 -2 5 12 5 14 0 19 -2 13 -5z m-836 -9 c-3 -3 -12 -4 -19 -1 -8 3 -5 6 6 6 11 1 17 -2 13 -5z m160 -1 c-4 -3 -10 -3 -14 0 -3 4 0 7 7 7 7 0 10 -3 7 -7z m77 -2 c3 -5 -3 -11 -15 -14 -16 -4 -18 -3 -8 9 13 16 16 17 23 5z m423 2 c-4 -3 -10 -3 -14 0 -3 4 0 7 7 7 7 0 10 -3 7 -7z m90 1 c-3 -3 -12 -4 -19 -1 -8 3 -5 6 6 6 11 1 17 -2 13 -5z m-434 -11 c-7 -2 -19 -2 -25 0 -7 3 -2 5 12 5 14 0 19 -2 13 -5z m327 -9 c0 -2 -18 -4 -41 -4 -22 0 -38 4 -35 8 5 8 76 4 76 -4z m180 6 c17 -5 19 -8 7 -9 -9 -1 -26 -7 -37 -13 -16 -10 -22 -10 -32 1 -8 8 -8 11 -1 7 6 -3 19 -3 29 1 16 6 16 7 -2 14 -26 10 4 9 36 -1z m-100 -10 c0 -5 -9 -10 -21 -10 -11 0 -17 5 -14 10 3 6 13 10 21 10 8 0 14 -4 14 -10z m-647 -7 c-7 -2 -21 -2 -30 0 -10 3 -4 5 12 5 17 0 24 -2 18 -5z m-80 -10 c-7 -2 -21 -2 -30 0 -10 3 -4 5 12 5 17 0 24 -2 18 -5z m934 -19 c-3 -3 -12 -4 -19 -1 -8 3 -5 6 6 6 11 1 17 -2 13 -5z m198 -4 c3 -6 -1 -7 -9 -4 -18 7 -21 14 -7 14 6 0 13 -4 16 -10z m42 3 c-4 -3 -10 -3 -14 0 -3 4 0 7 7 7 7 0 10 -3 7 -7z m-1547 -13 c0 -5 -4 -10 -9 -10 -6 0 -13 5 -16 10 -3 6 1 10 9 10 9 0 16 -4 16 -10z m148 1 c10 -6 7 -10 -10 -13 -16 -3 -25 0 -25 9 0 15 16 17 35 4z m1283 -11 c43 -21 43 -21 9 -14 -19 3 -38 11 -41 16 -3 5 -14 6 -24 2 -13 -5 -16 -4 -11 4 10 16 17 15 67 -8z m-1476 0 c3 -5 1 -10 -4 -10 -6 0 -11 5 -11 10 0 6 2 10 4 10 3 0 8 -4 11 -10z m125 -9 c0 -9 -52 -22 -59 -15 -4 3 37 22 52 23 4 1 7 -3 7 -8z m1490 -1 c-8 -5 -22 -9 -30 -9 -10 0 -8 3 5 9 27 12 43 12 25 0z m-70 -10 c0 -5 -4 -10 -10 -10 -5 0 -10 5 -10 10 0 6 5 10 10 10 6 0 10 -4 10 -10z m-1520 -19 c0 -5 -11 -11 -25 -13 -20 -4 -23 -3 -14 8 13 16 39 19 39 5z m1595 -1 c-3 -5 -11 -10 -16 -10 -6 0 -7 5 -4 10 3 6 11 10 16 10 6 0 7 -4 4 -10z m40 -20 c3 -5 4 -10 1 -10 -3 0 -8 5 -11 10 -3 6 -4 10 -1 10 3 0 8 -4 11 -10z m50 0 c3 -5 4 -10 1 -10 -3 0 -8 5 -11 10 -3 6 -4 10 -1 10 3 0 8 -4 11 -10z m118 3 c-7 -2 -19 -2 -25 0 -7 3 -2 5 12 5 14 0 19 -2 13 -5z m-2013 -13 c8 -5 11 -10 5 -10 -5 0 -17 5 -25 10 -8 5 -10 10 -5 10 6 0 17 -5 25 -10z m65 0 c-3 -5 -11 -10 -16 -10 -6 0 -7 5 -4 10 3 6 11 10 16 10 6 0 7 -4 4 -10z m42 -7 c-4 -3 -7 0 -7 7 0 7 3 10 7 7 3 -4 3 -10 0 -14z m1828 -13 c-3 -5 -12 -7 -20 -3 -21 7 -19 13 6 13 11 0 18 -4 14 -10z m75 0 c13 -9 13 -10 0 -9 -8 0 -24 4 -35 9 l-20 9 20 0 c11 0 27 -4 35 -9z m-2020 -4 c0 -3 -4 -8 -10 -11 -5 -3 -10 -1 -10 4 0 6 5 11 10 11 6 0 10 -2 10 -4z m21 -21 c-18 -8 -36 -15 -40 -15 -13 1 45 29 59 29 8 0 0 -6 -19 -14z m2003 -10 c11 -8 15 -15 10 -15 -6 0 -19 7 -30 15 -10 8 -14 14 -9 14 6 0 19 -6 29 -14z m49 -6 c5 -3 2 -9 -5 -12 -9 -3 -14 3 -15 15 -1 11 1 16 5 12 4 -5 11 -12 15 -15z m-2210 -6 c-7 -2 -19 -2 -25 0 -7 3 -2 5 12 5 14 0 19 -2 13 -5z m48 -20 c13 -15 12 -15 -8 -4 -24 12 -29 21 -14 21 5 0 15 -7 22 -17z m2230 0 c12 -16 12 -17 -1 -7 -8 6 -22 14 -30 17 -13 5 -12 6 1 6 9 1 23 -7 30 -16z m79 7 c0 -5 -7 -10 -16 -10 -8 0 -12 5 -9 10 3 6 10 10 16 10 5 0 9 -4 9 -10z m-2320 -25 c0 -2 -7 -5 -15 -9 -9 -3 -15 0 -15 9 0 9 6 12 15 9 8 -4 15 -7 15 -9z m1115 -25 c3 -13 10 -27 16 -31 7 -4 8 -9 1 -13 -5 -3 -13 2 -17 12 -10 25 -17 68 -10 61 3 -4 8 -17 10 -29z m1185 -27 c0 -2 -13 4 -30 14 -16 9 -30 21 -30 25 0 5 14 -1 30 -14 17 -12 30 -23 30 -25z m15 37 c-3 -5 -10 -10 -16 -10 -5 0 -9 5 -9 10 0 6 7 10 16 10 8 0 12 -4 9 -10z m-2355 -7 c0 -1 -8 -7 -18 -12 -13 -7 -19 -6 -19 2 0 7 9 13 19 13 10 0 18 -1 18 -3z m1127 -34 c1 -24 0 -26 -4 -9 -3 14 -10 31 -16 39 -10 11 -9 13 3 9 9 -3 16 -18 17 -39z m-1177 11 c0 -5 -2 -10 -4 -10 -3 0 -8 5 -11 10 -3 6 -1 10 4 10 6 0 11 -4 11 -10z m2480 6 c0 -9 -30 -14 -35 -6 -4 6 3 10 14 10 12 0 21 -2 21 -4z m-2553 -12 c-3 -3 -12 -4 -19 -1 -8 3 -5 6 6 6 11 1 17 -2 13 -5z m1203 -55 c-11 -24 -20 -40 -20 -34 0 17 34 98 37 88 2 -5 -5 -30 -17 -54z m-1166 33 c-5 -5 -42 -34 -82 -66 -72 -58 -160 -158 -183 -209 -6 -14 -17 -24 -22 -20 -7 4 -8 -1 -3 -13 6 -16 5 -17 -6 -6 -11 11 -10 16 5 26 9 7 17 16 17 20 0 14 72 108 115 149 25 24 45 50 46 58 0 11 2 11 6 1 3 -9 21 3 55 34 27 25 52 43 55 40 4 -4 2 -10 -3 -14z m2470 7 c-9 -14 16 -20 38 -9 21 10 21 10 6 -3 -16 -13 -16 -15 7 -37 19 -18 27 -20 38 -11 16 12 47 5 47 -11 0 -6 -7 -4 -16 3 -14 12 -18 11 -27 -2 -9 -14 -18 -11 -69 29 -32 25 -58 46 -58 46 0 1 9 2 19 2 11 0 18 -4 15 -7z m-2557 -26 c-4 -3 -7 0 -7 7 0 7 3 10 7 7 3 -4 3 -10 0 -14z m1283 -13 c0 -5 -5 -10 -11 -10 -5 0 -7 5 -4 10 3 6 8 10 11 10 2 0 4 -4 4 -10z m90 -9 c0 -5 3 -17 7 -27 4 -11 3 -15 -4 -11 -14 9 -24 47 -12 47 5 0 9 -4 9 -9z m1305 -51 c-3 -4 0 -11 5 -13 6 -3 5 -4 -1 -3 -7 1 -13 10 -15 19 -1 9 2 15 7 11 5 -3 7 -9 4 -14z m-1444 -7 c13 -16 12 -17 -3 -4 -17 13 -22 21 -14 21 2 0 10 -8 17 -17z m159 -27 c0 -13 3 -32 7 -42 4 -12 3 -15 -5 -10 -7 4 -12 19 -12 34 0 21 -2 24 -10 12 -11 -17 -13 -10 -4 14 9 24 24 19 24 -8z m-169 -15 c1 -9 3 -26 4 -38 1 -12 -2 -20 -6 -17 -5 3 -9 18 -9 35 0 41 -11 36 -40 -16 -14 -25 -28 -45 -32 -45 -4 0 7 24 25 54 31 52 55 64 58 27z m124 19 c3 -5 4 -10 1 -10 -3 0 -8 5 -11 10 -3 6 -4 10 -1 10 3 0 8 -4 11 -10z m1375 -15 c5 3 11 1 14 -4 4 -5 -2 -8 -11 -7 -9 2 -18 8 -19 15 -1 6 0 7 3 1 2 -5 9 -8 13 -5z m37 8 c-4 -3 -10 -3 -14 0 -3 4 0 7 7 7 7 0 10 -3 7 -7z m9 -41 c-3 -16 3 -38 14 -52 l18 -23 6 21 c4 12 12 22 17 22 6 0 7 -5 2 -12 -4 -7 -8 -21 -8 -30 0 -27 -17 -17 -53 31 -18 23 -29 40 -23 37 5 -4 12 3 16 14 9 29 15 25 11 -8z m-2929 11 c-4 -3 -10 -3 -14 0 -3 4 0 7 7 7 7 0 10 -3 7 -7z m1511 -89 l-3 -39 -5 47 c-3 26 -1 43 3 39 5 -5 7 -26 5 -47z m1494 -21 c-9 -28 -9 -27 -9 10 1 22 5 33 10 28 6 -6 5 -20 -1 -38z m-1712 22 c0 -8 -4 -15 -10 -15 -5 0 -7 7 -4 15 4 8 8 15 10 15 2 0 4 -7 4 -15z m40 -6 c0 -6 -5 -7 -12 -3 -7 5 -9 2 -6 -8 4 -8 1 -15 -7 -15 -10 0 -11 6 -3 23 10 22 28 24 28 3z m-80 -70 l-32 -33 22 43 c15 31 25 40 32 33 8 -8 1 -20 -22 -43z m-1339 14 c-12 -20 -14 -14 -5 12 4 9 9 14 11 11 3 -2 0 -13 -6 -23z m1626 10 c-4 -3 -7 0 -7 7 0 7 3 10 7 7 3 -4 3 -10 0 -14z m-25 -42 c2 -17 1 -28 -4 -25 -8 5 -12 54 -4 54 2 0 6 -13 8 -29z m-1585 2 c-4 -3 -7 0 -7 7 0 7 3 10 7 7 3 -4 3 -10 0 -14z m3081 -8 c-3 -3 -9 2 -12 12 -6 14 -5 15 5 6 7 -7 10 -15 7 -18z m-3091 -22 c-4 -3 -7 0 -7 7 0 7 3 10 7 7 3 -4 3 -10 0 -14z m-20 -10 c-4 -3 -7 0 -7 7 0 7 3 10 7 7 3 -4 3 -10 0 -14z m3133 13 c0 -3 -5 -8 -12 -12 -7 -4 -8 -3 -4 4 7 12 16 16 16 8z m47 -13 c-4 -3 -7 0 -7 7 0 7 3 10 7 7 3 -4 3 -10 0 -14z m-1852 -4 c11 -16 1 -19 -13 -3 -7 8 -8 14 -3 14 5 0 13 -5 16 -11z m315 -37 c0 -7 -4 -11 -9 -8 -5 3 -12 -1 -15 -10 -6 -17 -26 -10 -26 9 0 7 4 6 10 -3 7 -12 11 -8 16 18 5 24 9 30 15 20 5 -7 9 -19 9 -26z m1505 9 c-3 -12 -11 -19 -16 -16 -5 4 -3 14 3 25 15 24 22 19 13 -9z m-1835 10 c0 -6 -4 -12 -8 -15 -5 -3 -9 1 -9 9 0 8 4 15 9 15 4 0 8 -4 8 -9z m-25 -31 c3 -5 4 -10 1 -10 -3 0 -8 5 -11 10 -3 6 -4 10 -1 10 3 0 8 -4 11 -10z m40 0 c3 -5 1 -10 -4 -10 -6 0 -11 5 -11 10 0 6 2 10 4 10 3 0 8 -4 11 -10z m1852 -7 c-4 -3 -7 0 -7 7 0 7 3 10 7 7 3 -4 3 -10 0 -14z m-1910 -25 c-3 -8 -6 -5 -6 6 -1 11 2 17 5 13 3 -3 4 -12 1 -19z m350 -23 c-7 -25 -14 -32 -21 -25 -8 8 -8 13 0 18 6 4 13 15 17 25 12 32 15 17 4 -18z m-1609 -29 c-2 -24 -6 -42 -10 -39 -12 7 -9 83 2 83 6 0 9 -19 8 -44z m3169 27 c-4 -3 -7 0 -7 7 0 7 3 10 7 7 3 -4 3 -10 0 -14z m-1937 -13 c-6 -11 -13 -20 -16 -20 -2 0 0 9 6 20 6 11 13 20 16 20 2 0 0 -9 -6 -20z m26 -32 c4 -7 3 -8 -5 -4 -6 4 -14 0 -17 -8 -3 -9 -11 -16 -17 -16 -5 0 -2 9 8 20 21 23 22 24 31 8z m281 5 c-4 -3 -10 -3 -14 0 -3 4 0 7 7 7 7 0 10 -3 7 -7z m27 -8 c-4 -8 -1 -15 5 -15 9 0 9 -6 0 -22 -8 -15 -14 -18 -17 -10 -3 10 -7 10 -18 1 -12 -10 -13 -9 -8 5 4 10 13 15 21 11 11 -4 13 -1 9 11 -3 9 -4 20 0 25 9 14 14 10 8 -6z m1573 -7 c-3 -8 -6 -5 -6 6 -1 11 2 17 5 13 3 -3 4 -12 1 -19z m-1937 -8 c-6 -11 -13 -20 -16 -20 -2 0 0 9 6 20 6 11 13 20 16 20 2 0 0 -9 -6 -20z m317 -12 c-3 -8 -6 -5 -6 6 -1 11 2 17 5 13 3 -3 4 -12 1 -19z m-270 -10 c-3 -8 -6 -5 -6 6 -1 11 2 17 5 13 3 -3 4 -12 1 -19z m699 -34 c-15 -17 -29 0 -21 26 6 20 8 20 20 4 9 -13 9 -21 1 -30z m-744 14 c-7 -7 -12 -8 -12 -2 0 6 3 14 7 17 3 4 9 5 12 2 2 -3 -1 -11 -7 -17z m-25 -5 c-4 -3 -7 0 -7 7 0 7 3 10 7 7 3 -4 3 -10 0 -14z m1984 -6 c-10 -9 -11 -8 -5 6 3 10 9 15 12 12 3 -3 0 -11 -7 -18z m-1924 6 c-4 -3 -10 -3 -14 0 -3 4 0 7 7 7 7 0 10 -3 7 -7z m306 -18 c-3 -9 -8 -14 -10 -11 -3 3 -2 9 2 15 9 16 15 13 8 -4z m-373 -5 c0 -5 -2 -10 -4 -10 -3 0 -8 5 -11 10 -3 6 -1 10 4 10 6 0 11 -4 11 -10z m820 -54 c0 -23 -13 -13 -16 12 -1 9 -5 26 -8 37 -5 13 -2 11 8 -5 8 -14 15 -34 16 -44z m1136 16 c-12 -11 -18 7 -10 30 l8 23 4 -23 c2 -13 1 -26 -2 -30z m-3123 13 c-3 -8 -1 -15 5 -15 5 0 12 -11 14 -25 7 -33 -4 -32 -19 2 -15 32 -17 67 -3 58 5 -3 7 -12 3 -20z m1921 -9 c6 -25 5 -28 -7 -17 -8 6 -13 21 -10 32 7 24 8 22 17 -15z m1223 -3 c-4 -3 -7 0 -7 7 0 7 3 10 7 7 3 -4 3 -10 0 -14z m-2020 -26 c-6 -15 -16 -27 -20 -27 -5 0 0 13 9 30 22 36 29 34 11 -3z m43 23 c0 -5 -2 -10 -4 -10 -3 0 -8 5 -11 10 -3 6 -1 10 4 10 6 0 11 -4 11 -10z m337 -7 c-4 -3 -7 0 -7 7 0 7 3 10 7 7 3 -4 3 -10 0 -14z m450 -10 c-4 -3 -7 0 -7 7 0 7 3 10 7 7 3 -4 3 -10 0 -14z m-810 -20 c-4 -3 -7 0 -7 7 0 7 3 10 7 7 3 -4 3 -10 0 -14z m313 7 c0 -5 -2 -10 -4 -10 -3 0 -8 5 -11 10 -3 6 -1 10 4 10 6 0 11 -4 11 -10z m35 0 c3 -5 4 -10 1 -10 -3 0 -8 5 -11 10 -3 6 -4 10 -1 10 3 0 8 -4 11 -10z m405 -10 c0 -5 -5 -10 -11 -10 -5 0 -7 5 -4 10 3 6 8 10 11 10 2 0 4 -4 4 -10z m-723 -22 c-3 -8 -6 -5 -6 6 -1 11 2 17 5 13 3 -3 4 -12 1 -19z m300 7 c0 -8 -4 -15 -9 -15 -10 0 -11 14 -1 23 9 10 10 9 10 -8z m525 -7 c-7 -7 -12 -8 -12 -2 0 6 3 14 7 17 3 4 9 5 12 2 2 -3 -1 -11 -7 -17z m1094 -4 c-4 -9 -9 -15 -11 -12 -3 3 -3 13 1 22 4 9 9 15 11 12 3 -3 3 -13 -1 -22z m-2977 -134 c43 -55 47 -68 10 -30 -20 19 -34 38 -32 41 1 4 -13 24 -31 44 -19 20 -32 44 -29 51 3 8 0 14 -7 14 -6 0 -8 5 -4 11 4 6 19 -12 36 -42 16 -30 41 -70 57 -89z m977 120 c0 -12 -4 -16 -9 -11 -5 5 -6 14 -3 20 10 15 12 14 12 -9z m44 11 c0 -12 -20 -25 -27 -18 -7 7 6 27 18 27 5 0 9 -4 9 -9z m325 -20 c-6 -5 -25 10 -25 20 0 5 6 4 14 -3 8 -7 12 -15 11 -17z m-300 -1 c3 -5 1 -10 -4 -10 -6 0 -11 5 -11 10 0 6 2 10 4 10 3 0 8 -4 11 -10z m715 -10 c6 -12 8 -30 4 -42 -6 -21 -7 -21 -21 -2 -12 16 -15 17 -23 4 -6 -8 -8 -21 -5 -27 2 -7 -1 -12 -8 -10 -7 1 -11 -8 -9 -23 2 -19 0 -22 -8 -10 -14 22 -13 -5 1 -33 l12 -22 -20 20 c-22 22 -21 26 24 98 23 37 25 38 38 20 13 -16 14 -16 15 -1 0 9 -4 20 -10 23 -10 6 -14 25 -5 25 2 0 9 -9 15 -20z m137 3 c-4 -3 -7 0 -7 7 0 7 3 10 7 7 3 -4 3 -10 0 -14z m-584 -49 c-17 -30 -29 -42 -35 -36 -7 7 1 23 23 46 19 20 35 36 36 36 1 0 -10 -21 -24 -46z m571 -3 c8 -45 -3 -33 -14 14 -5 21 -5 34 -1 29 5 -5 11 -24 15 -43z m23 7 c-3 -8 -6 -5 -6 6 -1 11 2 17 5 13 3 -3 4 -12 1 -19z m-946 -20 c8 -15 8 -18 0 -14 -6 4 -16 16 -22 28 -8 15 -8 18 0 14 6 -4 16 -16 22 -28z m2019 24 c0 -5 -7 -17 -15 -28 -14 -18 -14 -17 -4 9 12 27 19 34 19 19z m-33 -19 c-4 -3 -7 0 -7 7 0 7 3 10 7 7 3 -4 3 -10 0 -14z m-2022 -13 c3 -5 4 -10 1 -10 -3 0 -8 5 -11 10 -3 6 -4 10 -1 10 3 0 8 -4 11 -10z m820 0 c3 -5 1 -10 -4 -10 -6 0 -11 5 -11 10 0 6 2 10 4 10 3 0 8 -4 11 -10z m1175 0 c0 -5 -5 -10 -11 -10 -5 0 -7 5 -4 10 3 6 8 10 11 10 2 0 4 -4 4 -10z m-1003 -7 c-4 -3 -10 -3 -14 0 -3 4 0 7 7 7 7 0 10 -3 7 -7z m-669 -27 c-15 -29 -15 -29 -22 -11 -4 11 -2 14 6 9 7 -5 9 -2 6 8 -4 8 0 15 7 15 11 0 11 -5 3 -21z m-1301 -13 c-4 -3 -7 0 -7 7 0 7 3 10 7 7 3 -4 3 -10 0 -14z m1327 2 c-4 -8 -8 -15 -10 -15 -2 0 -4 7 -4 15 0 8 4 15 10 15 5 0 7 -7 4 -15z m643 -17 c-3 -7 -5 -2 -5 12 0 14 2 19 5 13 2 -7 2 -19 0 -25z m-1937 7 c7 -9 8 -15 2 -15 -5 0 -12 7 -16 15 -3 8 -4 15 -2 15 2 0 9 -7 16 -15z m2908 -15 c-7 -10 -14 -17 -17 -15 -4 4 18 35 25 35 2 0 -1 -9 -8 -20z m-2923 -10 c3 -5 4 -10 1 -10 -3 0 -8 5 -11 10 -3 6 -4 10 -1 10 3 0 8 -4 11 -10z m1263 -42 c-17 -29 -32 -54 -33 -55 0 -1 -6 1 -12 5 -7 4 -14 25 -17 45 -3 21 -1 35 5 32 5 -4 9 -19 9 -36 0 -41 11 -36 40 16 14 25 28 45 32 45 4 0 -6 -24 -24 -52z m413 7 c-12 -20 -19 -40 -17 -43 6 -10 -16 -36 -33 -40 -9 -2 -3 14 15 45 44 76 48 82 52 78 3 -2 -5 -20 -17 -40z m246 28 c-4 -3 -7 0 -7 7 0 7 3 10 7 7 3 -4 3 -10 0 -14z m-1016 -2 c-9 -6 -11 -16 -7 -27 4 -10 4 -15 0 -11 -4 4 -14 1 -22 -6 -12 -10 -12 -6 2 21 9 17 22 32 29 32 8 0 8 -3 -2 -9z m1979 4 c0 -2 -11 -15 -24 -28 -14 -14 -22 -28 -18 -33 4 -4 1 -4 -6 0 -11 6 -7 15 14 37 27 29 34 33 34 24z m-940 -125 l-11 -25 6 25 c2 14 6 48 7 75 l2 50 3 -50 c2 -28 -1 -62 -7 -75z m-1760 23 c0 -3 -7 0 -15 7 -8 6 -20 8 -27 4 -7 -4 -10 -3 -5 1 4 5 -7 24 -25 44 -30 32 -29 31 20 -8 28 -24 52 -45 52 -48z m737 70 c-4 -3 -7 0 -7 7 0 7 3 10 7 7 3 -4 3 -10 0 -14z m1993 -12 c-12 -23 -29 -35 -37 -27 -7 7 26 46 39 46 5 0 4 -9 -2 -19z m-1988 -33 c-8 -8 -9 -4 -5 13 4 13 8 18 11 10 2 -7 -1 -18 -6 -23z m769 -1 c-10 -9 -11 -8 -5 6 3 10 9 15 12 12 3 -3 0 -11 -7 -18z m36 1 c-3 -8 -6 -5 -6 6 -1 11 2 17 5 13 3 -3 4 -12 1 -19z m190 0 c-3 -8 -6 -5 -6 6 -1 11 2 17 5 13 3 -3 4 -12 1 -19z m-1037 6 c0 -8 -19 -13 -24 -6 -3 5 1 9 9 9 8 0 15 -2 15 -3z m-40 -69 c-16 -41 -21 -25 -7 20 6 22 13 33 15 24 1 -9 -2 -28 -8 -44z m360 24 c0 -6 -4 -7 -10 -4 -5 3 -10 1 -10 -6 0 -7 -2 -10 -5 -7 -9 8 6 38 16 32 5 -3 9 -10 9 -15z m-902 -70 c2 -5 -4 -9 -12 -9 -9 0 -19 7 -22 15 -4 8 -16 15 -28 15 -14 0 -17 3 -8 8 9 6 5 12 -13 22 -14 7 -25 17 -25 21 0 10 104 -59 108 -72z m2449 66 c0 -8 -4 -15 -9 -15 -10 0 -11 14 -1 23 9 10 10 9 10 -8z m-2572 -15 c-3 -5 -11 -10 -16 -10 -6 0 -7 5 -4 10 3 6 11 10 16 10 6 0 7 -4 4 -10z m1450 -17 c18 -28 18 -28 -2 -10 -21 19 -33 14 -33 -15 0 -10 -4 -18 -10 -18 -5 0 -10 -7 -10 -16 0 -8 -4 -13 -9 -9 -8 4 34 95 44 95 1 0 11 -12 20 -27z m22 10 c-4 -3 -7 0 -7 7 0 7 3 10 7 7 3 -4 3 -10 0 -14z m250 -15 c-3 -7 -5 -2 -5 12 0 14 2 19 5 13 2 -7 2 -19 0 -25z m822 8 c10 -12 9 -14 -7 -9 -10 2 -25 -1 -33 -9 -21 -19 -60 -40 -65 -35 -2 2 17 18 43 35 27 16 49 31 49 31 1 1 7 -5 13 -13z m-1532 -13 c-4 -3 -7 0 -7 7 0 7 3 10 7 7 3 -4 3 -10 0 -14z m-990 1 c-3 -3 -12 -4 -19 -1 -8 3 -5 6 6 6 11 1 17 -2 13 -5z m933 -8 c0 -3 -4 -8 -10 -11 -5 -3 -10 -1 -10 4 0 6 5 11 10 11 6 0 10 -2 10 -4z m30 0 c0 -3 -5 -8 -12 -12 -7 -4 -8 -3 -4 4 7 12 16 16 16 8z m770 -29 c0 -5 -4 -5 -10 -2 -5 3 -10 14 -10 23 0 15 2 15 10 2 5 -8 10 -19 10 -23z m-1613 -4 c-4 -3 -7 0 -7 7 0 7 3 10 7 7 3 -4 3 -10 0 -14z m507 1 c3 -8 2 -12 -4 -9 -6 3 -10 10 -10 16 0 14 7 11 14 -7z m326 -25 c-12 -23 -24 -38 -27 -35 -5 5 35 76 43 76 2 0 -5 -18 -16 -41z m475 31 c3 -5 1 -10 -4 -10 -6 0 -11 5 -11 10 0 6 2 10 4 10 3 0 8 -4 11 -10z m-1220 -48 c-2 -2 -13 1 -24 8 -15 7 -27 8 -40 0 -28 -14 -38 -12 -16 3 10 8 15 19 11 25 -3 6 12 1 33 -11 22 -12 38 -23 36 -25z m1515 12 c0 -3 -7 -1 -15 6 -8 7 -15 17 -15 22 0 5 7 3 15 -6 8 -8 15 -18 15 -22z m745 26 c-3 -5 1 -10 9 -10 9 0 16 -5 16 -10 0 -7 -7 -7 -20 0 -17 9 -20 30 -4 30 3 0 2 -4 -1 -10z m-1550 -10 c3 -5 1 -10 -4 -10 -6 0 -11 5 -11 10 0 6 2 10 4 10 3 0 8 -4 11 -10z m1522 -17 c-4 -3 -7 0 -7 7 0 7 3 10 7 7 3 -4 3 -10 0 -14z m-1807 -25 c0 -5 -7 -3 -15 6 -8 8 -15 18 -15 22 0 3 7 1 15 -6 8 -7 15 -17 15 -22z m1730 22 c0 -5 -7 -10 -15 -10 -8 0 -15 -5 -15 -11 0 -5 -5 -7 -11 -3 -8 4 -3 12 12 20 29 16 29 16 29 4z m-655 -10 c3 -5 4 -10 1 -10 -3 0 -8 5 -11 10 -3 6 -4 10 -1 10 3 0 8 -4 11 -10z m-355 -33 c0 -4 -6 -2 -14 5 -8 7 -12 17 -9 22 5 8 23 -12 23 -27z m-453 1 c-3 -8 -6 -5 -6 6 -1 11 2 17 5 13 3 -3 4 -12 1 -19z m1390 8 c-13 -10 -14 -15 -5 -18 7 -3 3 -7 -9 -10 -28 -7 -26 12 2 29 27 17 34 16 12 -1z m-2023 -7 c-4 -8 1 -9 17 -4 13 4 21 4 17 0 -12 -12 -66 -15 -90 -5 -20 9 -18 9 9 4 17 -3 34 -1 38 5 3 6 8 11 11 11 3 0 2 -5 -2 -11z m1406 7 c0 -3 -4 -8 -10 -11 -5 -3 -10 -1 -10 4 0 6 5 11 10 11 6 0 10 -2 10 -4z m-53 -38 c-3 -7 -5 -2 -5 12 0 14 2 19 5 13 2 -7 2 -19 0 -25z m708 22 c3 -5 4 -10 1 -10 -3 0 -8 5 -11 10 -3 6 -4 10 -1 10 3 0 8 -4 11 -10z m-1985 -22 c0 -6 8 -7 18 -3 13 5 14 4 5 -6 -9 -9 -19 -9 -43 1 -21 9 -27 16 -19 21 15 9 39 1 39 -13z m297 -10 c-3 -7 -5 -2 -5 12 0 14 2 19 5 13 2 -7 2 -19 0 -25z m730 15 c-4 -3 -7 0 -7 7 0 7 3 10 7 7 3 -4 3 -10 0 -14z m862 -3 c-8 -4 -30 -10 -49 -13 l-35 -6 30 14 c17 7 33 11 38 8 4 -2 7 1 7 7 0 6 5 8 11 4 8 -5 8 -9 -2 -14z m-2052 -7 c-4 -3 -7 0 -7 7 0 7 3 10 7 7 3 -4 3 -10 0 -14z m1140 10 c-4 -3 -10 -3 -14 0 -3 4 0 7 7 7 7 0 10 -3 7 -7z m26 -6 c3 -8 -1 -14 -8 -14 -7 0 -11 6 -8 14 3 7 6 13 8 13 2 0 5 -6 8 -13z m292 -29 c-10 -13 -14 -16 -11 -8 3 8 9 24 13 35 4 11 8 14 11 7 2 -6 -4 -22 -13 -34z m690 24 c-3 -3 -11 0 -18 7 -9 10 -8 11 6 5 10 -3 15 -9 12 -12z m-2092 -9 c-7 -2 -19 -2 -25 0 -7 3 -2 5 12 5 14 0 19 -2 13 -5z m54 1 c-3 -3 -12 -4 -19 -1 -8 3 -5 6 6 6 11 1 17 -2 13 -5z m1020 -1 c-4 -3 -10 -3 -14 0 -3 4 0 7 7 7 7 0 10 -3 7 -7z m980 0 c-4 -3 -10 -3 -14 0 -3 4 0 7 7 7 7 0 10 -3 7 -7z m-1691 -62 c-5 -13 -12 -18 -14 -12 -2 6 -10 11 -17 11 -8 0 -16 4 -19 9 -3 4 6 6 19 3 22 -4 25 -1 26 24 0 25 2 26 8 9 5 -11 3 -30 -3 -44z m286 52 c-6 -2 -10 -9 -6 -14 3 -5 0 -9 -6 -9 -6 0 -8 -5 -4 -12 5 -9 2 -9 -9 1 -9 7 -17 19 -17 25 0 7 4 6 9 -2 7 -11 9 -11 14 2 4 9 12 16 19 15 10 0 10 -2 0 -6z m1255 0 c-4 -3 -10 -3 -14 0 -3 4 0 7 7 7 7 0 10 -3 7 -7z m-1500 -20 c-4 -3 -7 0 -7 7 0 7 3 10 7 7 3 -4 3 -10 0 -14z m190 0 c-4 -3 -10 -3 -14 0 -3 4 0 7 7 7 7 0 10 -3 7 -7z m-400 -10 c-4 -3 -10 -3 -14 0 -3 4 0 7 7 7 7 0 10 -3 7 -7z m93 3 c0 -2 -7 -6 -15 -10 -8 -3 -15 -1 -15 4 0 6 7 10 15 10 8 0 15 -2 15 -4z m1603 -3 c-7 -2 -21 -2 -30 0 -10 3 -4 5 12 5 17 0 24 -2 18 -5z m-1658 -13 c-27 -12 -43 -12 -25 0 8 5 22 9 30 9 10 0 8 -3 -5 -9z m391 -17 c-7 -7 -26 7 -26 19 0 6 6 6 15 -2 9 -7 13 -15 11 -17z m431 10 c-4 -3 -7 0 -7 7 0 7 3 10 7 7 3 -4 3 -10 0 -14z m723 2 c4 3 19 0 32 -5 22 -10 22 -10 -4 -5 -19 4 -30 0 -37 -12 -9 -15 -10 -13 -10 12 0 17 3 24 6 17 2 -6 8 -10 13 -7z m57 8 c-4 -3 -10 -3 -14 0 -3 4 0 7 7 7 7 0 10 -3 7 -7z m-1417 -13 c0 -5 -4 -10 -10 -10 -5 0 -10 5 -10 10 0 6 5 10 10 10 6 0 10 -4 10 -10z m985 0 c3 -5 1 -10 -4 -10 -6 0 -11 5 -11 10 0 6 2 10 4 10 3 0 8 -4 11 -10z m337 1 c-8 -4 -13 -11 -12 -15 1 -4 -1 -12 -3 -19 -3 -6 -6 0 -6 16 -1 19 4 27 17 27 13 0 14 -2 4 -9z m139 -9 c-7 -2 -18 1 -23 6 -8 8 -4 9 13 5 13 -4 18 -8 10 -11z m-1634 1 c-4 -3 -10 -3 -14 0 -3 4 0 7 7 7 7 0 10 -3 7 -7z m813 -19 c0 -2 -8 0 -19 5 -16 9 -21 6 -31 -19 -7 -17 -17 -33 -22 -36 -5 -3 0 12 12 35 18 36 23 40 40 31 11 -6 20 -13 20 -16z m-843 9 c-4 -3 -10 -3 -14 0 -3 4 0 7 7 7 7 0 10 -3 7 -7z m80 1 c-3 -3 -12 -4 -19 -1 -8 3 -5 6 6 6 11 1 17 -2 13 -5z m315 -8 c7 4 8 2 4 -5 -9 -13 -26 -5 -25 12 0 9 2 8 6 -1 2 -6 10 -9 15 -6z m721 -3 c-7 -2 -13 -14 -14 -26 0 -12 -3 -16 -6 -9 -7 18 4 42 19 41 10 0 10 -2 1 -6z m28 -20 c-12 -20 -14 -14 -5 12 4 9 9 14 11 11 3 -2 0 -13 -6 -23z m-311 -3 c0 -5 -4 -10 -10 -10 -5 0 -10 5 -10 10 0 6 5 10 10 10 6 0 10 -4 10 -10z m659 -84 c-9 -8 -10 -5 -5 14 3 14 7 36 8 50 1 14 3 8 5 -14 3 -22 -1 -43 -8 -50z m-373 44 c0 -20 -7 -25 -19 -13 -4 3 -2 12 4 20 15 17 15 17 15 -7z m-326 6 c0 -3 -5 -8 -12 -12 -7 -4 -8 -3 -4 4 7 12 16 16 16 8z m747 -13 c-4 -3 -7 0 -7 7 0 7 3 10 7 7 3 -4 3 -10 0 -14z m-1200 -20 c-4 -3 -7 0 -7 7 0 7 3 10 7 7 3 -4 3 -10 0 -14z m-50 -10 c-4 -3 -7 0 -7 7 0 7 3 10 7 7 3 -4 3 -10 0 -14z m460 0 c-4 -3 -7 0 -7 7 0 7 3 10 7 7 3 -4 3 -10 0 -14z m348 7 c3 -5 4 -10 1 -10 -3 0 -8 5 -11 10 -3 6 -4 10 -1 10 3 0 8 -4 11 -10z m-744 -37 c-12 -20 -14 -14 -5 12 4 9 9 14 11 11 3 -2 0 -13 -6 -23z m-24 -40 c-3 -10 -5 -2 -5 17 0 19 2 27 5 18 2 -10 2 -26 0 -35z m-36 1 c-5 -16 -10 -21 -10 -12 -1 18 10 51 15 45 2 -1 -1 -16 -5 -33z m809 32 c0 -3 -4 -8 -10 -11 -5 -3 -10 -1 -10 4 0 6 5 11 10 11 6 0 10 -2 10 -4z m-375 -15 c3 -5 -4 -12 -15 -16 -20 -6 -28 -35 -10 -35 6 0 10 -5 10 -12 0 -9 -3 -9 -12 0 -9 9 -15 9 -26 -1 -10 -7 -7 3 7 31 21 41 34 51 46 33z m32 -33 c-3 -7 -5 -2 -5 12 0 14 2 19 5 13 2 -7 2 -19 0 -25z m284 15 c13 -16 12 -17 -3 -4 -10 7 -18 15 -18 17 0 8 8 3 21 -13z m22 -23 c-9 -16 -19 -28 -21 -26 -2 3 4 15 12 28 9 14 13 28 9 33 -5 4 -2 5 5 1 10 -6 9 -14 -5 -36z m404 -10 c0 -27 -3 -47 -8 -45 -4 3 -6 12 -2 20 3 8 1 15 -5 15 -7 0 -6 10 1 30 6 17 12 30 12 30 1 0 2 -22 2 -50z m-460 8 c-3 -7 -5 -2 -5 12 0 14 2 19 5 13 2 -7 2 -19 0 -25z m-670 -15 c-4 -3 -7 0 -7 7 0 7 3 10 7 7 3 -4 3 -10 0 -14z m-27 -53 c-6 -42 -8 -47 -9 -20 -1 34 8 84 14 78 2 -2 0 -28 -5 -58z m712 -2 c-9 -15 -18 -25 -20 -23 -3 3 1 11 7 19 8 9 10 24 6 37 -6 19 -5 20 8 8 13 -12 13 -17 -1 -41z m-685 -65 c-2 -21 -4 -6 -4 32 0 39 2 55 4 38 2 -18 2 -50 0 -70z m323 87 c0 -5 -5 -10 -11 -10 -5 0 -7 5 -4 10 3 6 8 10 11 10 2 0 4 -4 4 -10z m786 -27 c-3 -4 -6 -1 -6 6 0 7 -4 9 -10 6 -6 -4 -7 1 -3 11 6 15 7 15 15 -1 6 -9 7 -19 4 -22z m-781 -5 c4 4 2 -3 -4 -15 -6 -13 -14 -23 -17 -23 -3 0 -2 5 1 10 4 6 1 19 -7 28 -11 15 -11 15 3 5 9 -7 19 -9 24 -5z m-60 -68 c-15 -16 -24 -33 -21 -39 4 -6 0 -11 -10 -11 -15 0 -15 2 1 28 10 15 24 31 32 35 7 5 10 13 7 19 -5 7 -2 8 5 3 9 -5 5 -15 -14 -35z m382 23 c-4 -3 -10 -3 -14 0 -3 4 0 7 7 7 7 0 10 -3 7 -7z m-27 -28 c14 -18 13 -19 -1 -8 -9 7 -19 10 -23 6 -4 -4 -4 1 0 10 3 10 7 17 8 15 1 -2 8 -12 16 -23z m435 15 c3 -5 4 -10 1 -10 -3 0 -8 5 -11 10 -3 6 -4 10 -1 10 3 0 8 -4 11 -10z m-25 -32 c-6 -13 -15 -35 -21 -50 -6 -16 -15 -26 -19 -23 -5 3 3 25 17 50 26 48 39 60 23 23z m-413 -15 c-4 -3 -10 -3 -14 0 -3 4 0 7 7 7 7 0 10 -3 7 -7z m-630 -25 c-3 -8 -6 -5 -6 6 -1 11 2 17 5 13 3 -3 4 -12 1 -19z m1070 5 c-4 -3 -7 0 -7 7 0 7 3 10 7 7 3 -4 3 -10 0 -14z m-1087 -40 c0 -45 -5 -40 -13 10 -3 22 -2 35 4 32 5 -4 9 -22 9 -42z m260 25 c0 -10 2 -10 9 0 7 11 9 11 14 -1 7 -18 -17 -17 -35 1 -9 9 -9 12 0 12 7 0 12 -6 12 -12z m347 -35 c-6 -14 -19 -23 -31 -22 -20 0 -20 1 2 9 25 10 28 29 10 49 -11 11 -9 11 8 0 19 -10 20 -16 11 -36z m467 13 c-6 -15 -24 -23 -24 -11 0 8 24 34 28 30 1 -1 0 -10 -4 -19z m-813 -19 c9 -19 8 -19 -10 3 -19 23 -27 18 -22 -13 1 -5 -3 -6 -9 -2 -7 4 -7 12 0 26 12 22 25 18 41 -14z m306 16 c-4 -3 -7 0 -7 7 0 7 3 10 7 7 3 -4 3 -10 0 -14z m-30 -25 c-3 -7 -5 -2 -5 12 0 14 2 19 5 13 2 -7 2 -19 0 -25z m-510 0 c-3 -8 -6 -5 -6 6 -1 11 2 17 5 13 3 -3 4 -12 1 -19z m987 -10 c-9 -14 -23 2 -17 18 4 12 8 13 14 3 4 -7 5 -17 3 -21z m-951 -18 c3 -11 1 -20 -4 -20 -5 0 -9 9 -9 20 0 11 2 20 4 20 2 0 6 -9 9 -20z m147 5 c0 -8 -4 -15 -10 -15 -5 0 -7 7 -4 15 4 8 8 15 10 15 2 0 4 -7 4 -15z m337 -12 c-4 -3 -7 0 -7 7 0 7 3 10 7 7 3 -4 3 -10 0 -14z m-453 -71 c17 -34 21 -49 12 -49 -7 0 -13 7 -12 16 1 9 -4 15 -10 14 -7 -1 -10 6 -7 20 4 18 3 19 -6 7 -9 -12 -11 -10 -11 13 0 15 2 27 5 27 2 0 16 -22 29 -48z m461 38 c3 -5 1 -10 -4 -10 -6 0 -11 5 -11 10 0 6 2 10 4 10 3 0 8 -4 11 -10z m445 -6 c0 -8 -5 -12 -10 -9 -6 4 -8 11 -5 16 9 14 15 11 15 -7z m-810 -15 c0 -6 -4 -7 -10 -4 -5 3 -10 11 -10 16 0 6 5 7 10 4 6 -3 10 -11 10 -16z m756 -18 c-19 -21 -20 -28 -3 -34 7 -2 6 -3 -3 -3 -8 1 -23 -8 -34 -19 -18 -20 -18 -20 -4 5 8 14 23 41 33 60 11 20 20 29 23 22 2 -7 -3 -21 -12 -31z m-739 12 c-4 -3 -7 0 -7 7 0 7 3 10 7 7 3 -4 3 -10 0 -14z m313 3 c0 -3 -5 -8 -12 -12 -7 -4 -8 -3 -4 4 7 12 16 16 16 8z m1 -38 c-11 -18 -21 -29 -21 -25 0 13 33 67 38 62 3 -2 -5 -19 -17 -37z m479 18 c0 -3 -5 -8 -12 -12 -7 -4 -8 -3 -4 4 7 12 16 16 16 8z m-512 -25 c-7 -11 -16 -17 -20 -15 -14 9 -9 22 10 27 9 3 18 5 20 6 1 0 -3 -8 -10 -18z m-327 -37 c-9 -7 -18 -10 -21 -7 -3 3 0 8 6 10 7 2 10 14 7 26 -5 22 -5 22 10 2 13 -17 13 -21 -2 -31z m39 11 c0 -5 -5 -3 -10 5 -5 8 -10 20 -10 25 0 6 5 3 10 -5 5 -8 10 -19 10 -25z m297 -12 c-4 -3 -10 -3 -14 0 -3 4 0 7 7 7 7 0 10 -3 7 -7z m-23 -48 c-4 -8 -10 -13 -15 -10 -4 3 -6 12 -3 20 4 8 10 13 15 10 4 -3 6 -12 3 -20z m417 -12 c-12 -20 -14 -14 -5 12 4 9 9 14 11 11 3 -2 0 -13 -6 -23z m36 10 c-4 -3 -7 0 -7 7 0 7 3 10 7 7 3 -4 3 -10 0 -14z m-757 -3 c0 -5 -2 -10 -4 -10 -3 0 -8 5 -11 10 -3 6 -1 10 4 10 6 0 11 -4 11 -10z m281 -51 c-5 -13 -10 -19 -10 -12 -1 15 10 45 15 40 3 -2 0 -15 -5 -28z m-68 -50 c-6 -6 -7 3 -4 23 4 28 6 29 9 9 2 -13 0 -27 -5 -32z m35 15 c-3 -14 -5 -12 -10 9 -3 19 -2 25 4 19 6 -6 8 -18 6 -28z m429 -1 c-4 -3 -7 0 -7 7 0 7 3 10 7 7 3 -4 3 -10 0 -14z m-410 -10 c-4 -3 -7 0 -7 7 0 7 3 10 7 7 3 -4 3 -10 0 -14z m379 1 c-10 -25 4 -37 21 -17 13 17 13 16 3 -4 -11 -24 -30 -31 -30 -12 0 5 -4 7 -10 4 -5 -3 -10 -14 -10 -25 0 -10 -7 -21 -16 -24 -10 -4 -13 -13 -9 -28 5 -19 4 -20 -5 -6 -8 12 -3 29 22 72 31 55 46 72 34 40z m-429 -46 c-3 -8 -6 -5 -6 6 -1 11 2 17 5 13 3 -3 4 -12 1 -19z m12 -42 c-9 -8 -10 -7 -5 7 3 10 7 26 7 35 1 9 4 6 6 -7 3 -13 -1 -28 -8 -35z m436 14 c-3 -5 -12 -10 -18 -10 -7 0 -6 4 3 10 19 12 23 12 15 0z m-418 -62 c-3 -8 -6 -5 -6 6 -1 11 2 17 5 13 3 -3 4 -12 1 -19z m352 -43 c-1 -16 -2 -15 -9 5 -6 22 -8 23 -15 7 -4 -9 -4 -28 -1 -41 4 -15 1 -26 -7 -29 -10 -4 -12 3 -9 24 2 16 -1 36 -8 44 -11 13 -10 14 4 9 10 -4 18 0 22 11 5 13 9 14 15 3 5 -7 8 -22 8 -33z m-352 -22 c-3 -10 -5 -4 -5 12 0 17 2 24 5 18 2 -7 2 -21 0 -30z m283 -2 c-6 -12 -8 -27 -4 -33 4 -7 3 -8 -5 -4 -15 10 -27 -22 -12 -37 6 -6 11 -16 11 -21 0 -6 -5 -3 -11 7 -12 21 -29 22 -29 2 0 -8 -5 -15 -11 -15 -5 0 2 19 16 43 14 23 31 52 37 65 6 12 13 20 15 18 3 -2 0 -14 -7 -25z m-313 -83 c-3 -8 -6 -5 -6 6 -1 11 2 17 5 13 3 -3 4 -12 1 -19z m33 -33 c5 3 12 0 16 -6 4 -8 3 -9 -4 -5 -8 5 -13 -2 -13 -21 l-2 -28 -4 28 c-5 30 -23 37 -24 10 0 -13 -3 -11 -10 6 -5 13 -7 26 -4 29 3 3 5 0 5 -7 0 -21 20 -1 21 22 2 17 3 15 6 -6 2 -15 8 -25 13 -22z m253 12 c3 -8 -1 -14 -8 -14 -7 0 -11 6 -8 14 3 7 6 13 8 13 2 0 5 -6 8 -13z m-39 -32 c-5 -13 -34 -30 -34 -19 0 3 5 14 11 25 11 22 31 17 23 -6z m-50 -72 c-4 -22 -3 -25 5 -13 8 11 9 6 5 -20 -9 -45 -14 -51 -14 -16 0 15 -4 25 -10 21 -5 -3 -5 7 1 25 14 38 21 39 13 3z m-147 10 c-4 -3 -10 -3 -14 0 -3 4 0 7 7 7 7 0 10 -3 7 -7z m30 -30 c-4 -3 -7 0 -7 7 0 7 3 10 7 7 3 -4 3 -10 0 -14z m17 -29 c3 -8 2 -12 -4 -9 -6 3 -10 10 -10 16 0 14 7 11 14 -7z m-11 -44 c-3 -12 -8 -19 -11 -16 -5 6 5 36 12 36 2 0 2 -9 -1 -20z m42 -10 c8 -27 23 -25 28 3 4 21 4 21 6 1 0 -11 -9 -29 -21 -40 -12 -10 -18 -14 -15 -7 10 17 -3 45 -19 39 -8 -3 -11 0 -7 10 7 20 21 17 28 -6z m62 3 c-4 -3 -7 0 -7 7 0 7 3 10 7 7 3 -4 3 -10 0 -14z m-10 -35 c-3 -8 -6 -5 -6 6 -1 11 2 17 5 13 3 -3 4 -12 1 -19z m30 -10 c-3 -7 -5 -2 -5 12 0 14 2 19 5 13 2 -7 2 -19 0 -25z m-100 -5 c-4 -3 -10 -3 -14 0 -3 4 0 7 7 7 7 0 10 -3 7 -7z"/>
 <path d="M3180 2600 c0 -7 3 -10 7 -7 3 4 3 10 0 14 -4 3 -7 0 -7 -7z"/>
 <path d="M2060 2260 c0 -7 3 -10 7 -7 3 4 3 10 0 14 -4 3 -7 0 -7 -7z"/>
 <path d="M1854 1848 c-4 -7 -3 -8 4 -4 12 7 16 16 8 16 -3 0 -8 -5 -12 -12z"/>
 </g>
<g id="layer103" fill="#ddfdf8" stroke="none">
 <path d="M1432 3159 c-345 -31 -701 -140 -928 -284 -338 -215 -459 -509 -321 -780 84 -168 254 -311 504 -427 86 -40 281 -108 308 -108 9 0 15 18 19 58 11 100 37 202 70 265 17 34 145 259 285 500 139 241 263 467 276 503 12 36 25 68 29 71 11 11 76 -143 92 -217 21 -101 14 -239 -18 -340 -23 -72 -63 -145 -359 -655 -114 -197 -148 -270 -165 -349 -20 -94 -18 -238 6 -324 24 -85 78 -199 89 -186 4 5 15 34 24 64 16 53 84 176 364 660 271 468 314 547 335 613 19 64 21 67 35 48 60 -87 97 -245 90 -385 -7 -140 -29 -201 -153 -416 -425 -735 -409 -701 -409 -905 0 -111 4 -140 24 -200 23 -68 71 -165 81 -165 3 0 15 33 27 73 12 39 49 117 81 172 32 55 95 163 139 240 45 77 141 243 214 369 137 237 182 340 194 447 5 43 11 59 22 59 32 0 232 73 332 121 273 130 450 300 512 491 30 95 31 216 0 301 -162 457 -958 761 -1799 686z"/>
 </g>
<g id="layer104" fill="#fefefe" stroke="none">
 <path d="M1431 3159 c-118 -11 -333 -47 -345 -59 -5 -5 -15 -6 -22 -3 -8 3 -14 0 -14 -7 0 -7 -6 -10 -14 -7 -16 7 -96 -12 -114 -26 -7 -6 -25 -11 -39 -12 -14 0 -31 -9 -38 -18 -9 -13 -14 -14 -17 -5 -3 9 -15 6 -42 -10 -20 -12 -44 -22 -52 -22 -29 0 -76 -31 -70 -46 4 -12 2 -12 -14 -4 -11 6 -20 7 -20 2 0 -5 -12 -12 -27 -15 -39 -9 -155 -85 -148 -97 3 -6 -1 -7 -9 -4 -9 4 -18 -1 -22 -10 -3 -9 -12 -16 -18 -16 -7 0 -25 -15 -42 -32 l-29 -33 30 25 30 25 -24 -27 c-13 -15 -29 -24 -36 -22 -7 3 -31 -17 -54 -44 -41 -50 -51 -69 -28 -56 8 5 8 2 -2 -9 -15 -19 -26 -23 -15 -5 5 7 3 8 -5 4 -7 -5 -10 -15 -7 -23 3 -8 2 -11 -4 -8 -10 6 -40 -45 -40 -70 0 -8 -5 -15 -11 -15 -6 0 -9 -7 -5 -15 3 -8 1 -15 -5 -15 -7 0 -9 -11 -5 -27 4 -19 4 -23 -3 -14 -22 34 -27 -179 -5 -253 7 -27 22 -61 31 -75 10 -14 18 -31 19 -38 5 -32 113 -165 129 -159 7 2 12 -2 11 -9 0 -7 28 -36 63 -64 47 -39 69 -50 85 -46 14 4 17 3 8 -3 -10 -7 -1 -17 38 -41 28 -17 56 -28 62 -25 6 4 8 3 5 -3 -7 -11 161 -93 189 -93 8 0 25 -6 37 -14 29 -19 175 -61 183 -53 4 3 8 36 10 71 1 36 5 69 7 73 5 9 19 70 22 93 1 8 11 33 22 55 11 22 18 46 15 54 -3 9 0 11 8 6 10 -6 12 -4 7 9 -4 9 -3 15 2 11 14 -8 112 170 105 189 -3 9 -10 16 -16 16 -5 0 -6 5 -2 11 4 8 11 4 19 -11 11 -21 16 -15 79 95 37 64 69 125 71 135 2 10 13 28 24 39 26 26 52 77 44 85 -4 3 -1 6 6 6 8 0 11 6 7 16 -3 8 -2 13 3 9 9 -5 97 138 103 166 2 8 8 17 13 21 6 4 10 11 10 15 1 4 13 27 28 51 34 52 49 91 41 103 -3 5 -1 9 5 9 6 0 15 18 21 40 6 22 16 40 22 40 6 0 9 -3 6 -6 -4 -3 9 -38 28 -78 19 -39 41 -105 50 -146 19 -93 16 -235 -8 -308 -9 -29 -14 -60 -11 -70 3 -9 2 -14 -2 -9 -12 10 -36 -49 -29 -71 4 -12 3 -13 -3 -5 -6 9 -14 4 -27 -17 -9 -17 -19 -39 -21 -49 -2 -11 -13 -29 -24 -40 -26 -26 -52 -77 -44 -85 4 -3 1 -6 -6 -6 -8 0 -11 -6 -7 -16 3 -8 2 -13 -3 -9 -10 6 -101 -146 -101 -170 0 -8 -4 -15 -10 -15 -5 0 -10 -7 -10 -15 0 -8 -5 -15 -11 -15 -6 0 -8 -7 -5 -16 3 -8 2 -12 -4 -9 -13 8 -13 -1 1 -28 9 -21 9 -21 -5 -4 -13 17 -16 16 -41 -27 -15 -25 -23 -51 -19 -57 4 -8 3 -9 -4 -5 -8 5 -12 -2 -12 -18 0 -16 -6 -26 -15 -26 -9 0 -12 -6 -8 -17 4 -11 3 -14 -5 -9 -14 9 -76 -110 -68 -131 3 -8 2 -12 -3 -9 -11 7 -27 -35 -40 -104 -12 -70 -13 -238 -1 -245 5 -3 7 -11 4 -19 -3 -7 1 -26 7 -42 7 -16 11 -33 10 -37 -3 -14 41 -107 49 -102 4 3 7 -3 6 -12 0 -10 7 -19 17 -21 15 -3 18 0 13 16 -4 11 -2 23 4 27 15 10 41 77 35 92 -2 8 -1 11 5 8 5 -3 16 8 25 25 14 26 14 34 3 48 -12 15 -11 16 4 4 14 -11 18 -10 28 8 6 11 8 26 4 32 -5 7 -3 8 6 3 10 -6 12 -4 7 9 -4 9 -3 15 2 11 12 -7 54 62 46 75 -3 5 -1 10 4 10 6 0 11 7 11 15 0 8 5 15 11 15 6 0 9 7 5 15 -3 8 0 14 7 12 7 -1 11 6 11 15 -1 10 2 15 7 13 4 -3 13 13 19 35 6 23 17 43 25 47 14 5 55 63 55 77 0 4 -5 4 -12 0 -7 -4 -8 -3 -4 5 4 6 11 9 15 7 9 -6 71 99 71 119 0 7 4 15 9 17 5 2 11 9 13 17 2 8 11 23 21 33 10 10 15 23 12 28 -4 6 -1 10 5 10 6 0 8 5 5 10 -3 6 -2 10 4 10 13 0 83 119 76 130 -3 4 1 10 8 13 14 5 125 196 152 260 9 21 13 42 10 47 -4 6 -1 10 5 10 6 0 10 6 8 13 -1 6 3 22 10 35 7 12 10 28 6 34 -5 7 -3 8 5 4 7 -5 10 -13 8 -20 -3 -7 10 -44 29 -82 18 -38 34 -76 34 -84 0 -11 2 -12 8 -3 9 15 11 -7 15 -215 2 -83 1 -150 -1 -147 -3 3 -13 -20 -23 -50 -9 -31 -61 -132 -114 -225 -54 -95 -93 -175 -89 -182 4 -6 3 -8 -4 -5 -13 9 -106 -149 -98 -168 3 -9 -1 -15 -10 -15 -11 0 -14 -6 -10 -16 3 -9 2 -12 -4 -9 -6 4 -18 -11 -28 -32 -10 -21 -35 -64 -56 -96 -21 -32 -35 -61 -32 -64 3 -3 -6 -19 -20 -36 -19 -23 -22 -32 -13 -43 9 -12 9 -13 -3 -9 -29 11 -53 -103 -53 -250 0 -111 3 -140 24 -200 38 -114 103 -216 89 -140 -3 14 -2 25 2 25 8 0 54 117 55 137 0 7 7 18 16 25 25 21 50 68 43 80 -4 6 -3 8 3 5 11 -7 56 67 46 77 -3 3 -1 6 6 6 7 0 10 7 7 18 -4 10 1 27 10 38 14 18 15 18 4 -6 -10 -23 -9 -22 15 5 14 17 24 38 21 48 -2 9 -1 15 4 12 4 -3 16 7 25 22 12 18 14 28 7 31 -8 2 -8 7 1 17 7 7 15 11 19 9 4 -3 21 24 38 58 22 44 25 55 11 38 -11 -14 -21 -21 -21 -17 0 4 18 26 41 48 25 25 39 46 35 55 -3 8 1 17 9 20 8 4 12 10 9 15 -3 5 -1 9 4 9 15 0 83 120 75 133 -3 7 -2 9 2 4 5 -4 28 26 52 65 31 53 42 80 38 98 -4 16 -3 20 3 12 12 -17 37 41 26 59 -4 7 -3 10 3 6 12 -7 28 47 39 130 6 49 8 52 40 58 19 3 32 10 29 15 -3 6 1 7 9 4 19 -7 146 34 146 47 0 6 4 7 10 4 11 -7 50 12 68 34 8 9 11 10 7 4 -9 -19 -1 -16 67 18 58 29 61 32 43 45 -10 8 -14 14 -9 14 6 0 16 -6 22 -12 10 -10 15 -10 21 0 5 8 11 13 15 13 20 -3 26 0 20 11 -4 7 -3 8 4 4 13 -8 102 49 102 64 0 6 6 10 14 10 23 0 37 24 23 40 -10 12 -9 12 6 1 15 -12 21 -11 42 9 13 13 22 27 19 31 -3 5 1 9 9 9 18 0 38 23 41 47 2 10 8 18 15 18 6 0 22 16 34 34 12 19 16 32 9 27 -19 -11 -14 -2 18 39 41 52 63 133 64 230 0 81 -26 185 -45 185 -6 0 -7 5 -4 10 9 14 -59 123 -96 154 -17 14 -27 26 -23 26 4 0 -3 11 -16 25 -12 13 -27 22 -31 19 -5 -3 -9 0 -9 6 0 6 -5 8 -12 4 -6 -4 -8 -3 -4 4 9 15 -63 72 -82 64 -9 -3 -13 -1 -9 5 9 14 -19 37 -34 27 -7 -4 -9 -3 -6 3 9 14 -61 56 -80 49 -8 -3 -11 -2 -8 3 10 17 -13 22 -28 6 -23 -23 -33 -18 -12 5 18 20 18 21 0 14 -12 -5 -16 -4 -12 3 4 6 -18 21 -51 36 -94 42 -116 50 -140 48 -15 0 -21 3 -16 11 4 7 3 8 -4 4 -6 -4 -22 0 -34 8 -39 25 -215 65 -229 52 -9 -8 -10 -8 -5 1 8 14 -3 18 -124 37 -216 35 -487 45 -709 25z m-284 -66 c-4 -3 -10 -3 -14 0 -3 4 0 7 7 7 7 0 10 -3 7 -7z m-30 -10 c-4 -3 -10 -3 -14 0 -3 4 0 7 7 7 7 0 10 -3 7 -7z m1127 -2 c4 -5 -3 -7 -14 -4 -23 6 -26 13 -6 13 8 0 17 -4 20 -9z m-1157 -18 c-4 -3 -10 -3 -14 0 -3 4 0 7 7 7 7 0 10 -3 7 -7z m-300 -80 c-4 -3 -10 -3 -14 0 -3 4 0 7 7 7 7 0 10 -3 7 -7z m1850 -10 c-4 -3 -10 -3 -14 0 -3 4 0 7 7 7 7 0 10 -3 7 -7z m40 -70 c-4 -3 -7 0 -7 7 0 7 3 10 7 7 3 -4 3 -10 0 -14z m160 -40 c-4 -3 -7 0 -7 7 0 7 3 10 7 7 3 -4 3 -10 0 -14z m-2291 -2 c-6 -9 -56 -22 -56 -14 0 4 40 21 53 22 5 1 6 -3 3 -8z m1031 -23 c-3 -8 -6 -5 -6 6 -1 11 2 17 5 13 3 -3 4 -12 1 -19z m1330 -5 c-4 -3 -7 0 -7 7 0 7 3 10 7 7 3 -4 3 -10 0 -14z m-42 -3 c-3 -5 -12 -10 -18 -10 -7 0 -6 4 3 10 19 12 23 12 15 0z m-1271 -35 c-9 -14 -18 -25 -21 -25 -5 0 5 18 20 38 17 22 18 13 1 -13z m1381 -15 c3 -5 2 -10 -4 -10 -5 0 -13 5 -16 10 -3 6 -2 10 4 10 5 0 13 -4 16 -10z m-1448 -57 c-4 -3 -10 -3 -14 0 -3 4 0 7 7 7 7 0 10 -3 7 -7z m-20 -30 c-4 -3 -7 0 -7 7 0 7 3 10 7 7 3 -4 3 -10 0 -14z m1584 -36 c-10 -9 -11 -8 -5 6 3 10 9 15 12 12 3 -3 0 -11 -7 -18z m-1594 -24 c-4 -3 -7 0 -7 7 0 7 3 10 7 7 3 -4 3 -10 0 -14z m1633 -13 c0 -5 -2 -10 -4 -10 -3 0 -8 5 -11 10 -3 6 -1 10 4 10 6 0 11 -4 11 -10z m-2883 -47 c-4 -3 -10 -3 -14 0 -3 4 0 7 7 7 7 0 10 -3 7 -7z m-100 -180 c-4 -3 -7 0 -7 7 0 7 3 10 7 7 3 -4 3 -10 0 -14z m1200 10 c-4 -3 -10 -3 -14 0 -3 4 0 7 7 7 7 0 10 -3 7 -7z m408 -73 c-3 -5 -12 -10 -18 -10 -7 0 -6 4 3 10 19 12 23 12 15 0z m-518 -17 c-4 -3 -7 0 -7 7 0 7 3 10 7 7 3 -4 3 -10 0 -14z m-1070 -80 c-4 -3 -7 0 -7 7 0 7 3 10 7 7 3 -4 3 -10 0 -14z m1970 -30 c-4 -3 -7 0 -7 7 0 7 3 10 7 7 3 -4 3 -10 0 -14z m38 -23 c3 -5 1 -10 -4 -10 -6 0 -11 5 -11 10 0 6 2 10 4 10 3 0 8 -4 11 -10z m-488 -7 c-4 -3 -10 -3 -14 0 -3 4 0 7 7 7 7 0 10 -3 7 -7z m-460 -20 c-4 -3 -7 0 -7 7 0 7 3 10 7 7 3 -4 3 -10 0 -14z m780 0 c-4 -3 -7 0 -7 7 0 7 3 10 7 7 3 -4 3 -10 0 -14z m-20 -20 c-4 -3 -7 0 -7 7 0 7 3 10 7 7 3 -4 3 -10 0 -14z m1210 0 c-4 -3 -7 0 -7 7 0 7 3 10 7 7 3 -4 3 -10 0 -14z m-2950 -80 c-4 -3 -7 0 -7 7 0 7 3 10 7 7 3 -4 3 -10 0 -14z m1683 -17 c0 -3 -5 -8 -12 -12 -7 -4 -8 -3 -4 4 7 12 16 16 16 8z m-1663 -53 c-4 -3 -7 0 -7 7 0 7 3 10 7 7 3 -4 3 -10 0 -14z m38 -23 c3 -5 4 -10 1 -10 -3 0 -8 5 -11 10 -3 6 -4 10 -1 10 3 0 8 -4 11 -10z m2772 -7 c-4 -3 -7 0 -7 7 0 7 3 10 7 7 3 -4 3 -10 0 -14z m-1552 -23 c-3 -5 -12 -10 -18 -10 -7 0 -6 4 3 10 19 12 23 12 15 0z m-1098 -27 c-4 -3 -7 0 -7 7 0 7 3 10 7 7 3 -4 3 -10 0 -14z m1418 -3 c3 -5 1 -10 -4 -10 -6 0 -11 5 -11 10 0 6 2 10 4 10 3 0 8 -4 11 -10z m-328 -27 c-4 -3 -7 0 -7 7 0 7 3 10 7 7 3 -4 3 -10 0 -14z m317 -9 c3 -8 2 -12 -4 -9 -6 3 -10 10 -10 16 0 14 7 11 14 -7z m-1344 -38 c0 -3 -5 -8 -12 -12 -7 -4 -8 -3 -4 4 7 12 16 16 16 8z m177 -83 c-4 -3 -7 0 -7 7 0 7 3 10 7 7 3 -4 3 -10 0 -14z m-40 0 c-4 -3 -10 -3 -14 0 -3 4 0 7 7 7 7 0 10 -3 7 -7z m1550 -110 c-4 -3 -7 0 -7 7 0 7 3 10 7 7 3 -4 3 -10 0 -14z m-803 -9 c3 -8 2 -12 -4 -9 -6 3 -10 10 -10 16 0 14 7 11 14 -7z m1183 9 c-4 -3 -10 -3 -14 0 -3 4 0 7 7 7 7 0 10 -3 7 -7z m-882 -33 c3 -5 4 -10 1 -10 -3 0 -8 5 -11 10 -3 6 -4 10 -1 10 3 0 8 -4 11 -10z m742 -17 c-4 -3 -10 -3 -14 0 -3 4 0 7 7 7 7 0 10 -3 7 -7z m-770 -40 c-4 -3 -7 0 -7 7 0 7 3 10 7 7 3 -4 3 -10 0 -14z m453 -7 c0 -3 -5 -8 -12 -12 -7 -4 -8 -3 -4 4 7 12 16 16 16 8z m-49 -49 c-10 -9 -11 -8 -5 6 3 10 9 15 12 12 3 -3 0 -11 -7 -18z m-764 -4 c-4 -3 -7 0 -7 7 0 7 3 10 7 7 3 -4 3 -10 0 -14z m214 -156 c-10 -9 -11 -8 -5 6 3 10 9 15 12 12 3 -3 0 -11 -7 -18z m696 -74 c-4 -3 -7 0 -7 7 0 7 3 10 7 7 3 -4 3 -10 0 -14z m-273 -9 c3 -8 2 -12 -4 -9 -6 3 -10 10 -10 16 0 14 7 11 14 -7z m323 -11 c-4 -3 -7 0 -7 7 0 7 3 10 7 7 3 -4 3 -10 0 -14z m-337 -7 c0 -3 -5 -8 -12 -12 -7 -4 -8 -3 -4 4 7 12 16 16 16 8z m257 -143 c-4 -3 -7 0 -7 7 0 7 3 10 7 7 3 -4 3 -10 0 -14z m-317 -3 c0 -5 -4 -10 -10 -10 -5 0 -10 5 -10 10 0 6 5 10 10 10 6 0 10 -4 10 -10z m297 -37 c-4 -3 -10 -3 -14 0 -3 4 0 7 7 7 7 0 10 -3 7 -7z m-87 -128 c0 -5 -5 -3 -10 5 -5 8 -10 20 -10 25 0 6 5 3 10 -5 5 -8 10 -19 10 -25z m-363 -82 c-4 -3 -7 0 -7 7 0 7 3 10 7 7 3 -4 3 -10 0 -14z m278 -33 c3 -5 4 -10 1 -10 -3 0 -8 5 -11 10 -3 6 -4 10 -1 10 3 0 8 -4 11 -10z m-318 -42 c-3 -8 -6 -5 -6 6 -1 11 2 17 5 13 3 -3 4 -12 1 -19z m273 -88 c0 -5 -5 -10 -11 -10 -5 0 -7 5 -4 10 3 6 8 10 11 10 2 0 4 -4 4 -10z m-133 -137 c-4 -3 -7 0 -7 7 0 7 3 10 7 7 3 -4 3 -10 0 -14z m20 -60 c-4 -3 -7 0 -7 7 0 7 3 10 7 7 3 -4 3 -10 0 -14z m-92 -143 c3 -5 4 -10 1 -10 -3 0 -8 5 -11 10 -3 6 -4 10 -1 10 3 0 8 -4 11 -10z m-28 -57 c-4 -3 -7 0 -7 7 0 7 3 10 7 7 3 -4 3 -10 0 -14z"/>
 </g>

</svg>